<?xml version="1.0" encoding="utf-8" ?>
<svg version="1.1" id="Layer_1" xmlns="http://www.w3.org/2000/svg" xmlns:xlink="http://www.w3.org/1999/xlink" x="0px" y="0px" viewBox="0 0 128 128" style="enable-background:new 0 0 128 128;" xml:space="preserve">
  <style type="text/css">
    .st0{fill:#24a148;}
  </style>
  <path class="st0" d="M108.1,55l-2.4-40.3l-11.3,7.5C85.6,15.8,75,12.4,64,12.4c-25.8,0-47.2,19-51,43.7l13.4,1.8
  c3-18.1,18.7-32,37.7-32c6.3,0,12.5,1.6,18,4.5L72,37L108.1,55z" />
  <path class="st0" d="M19.9,73l2.4,40.3l11.3-7.5c8.8,6.4,19.4,9.8,30.3,9.8c25.8,0,47.2-19,51-43.7l-13.4-1.8
  c-3,18.1-18.7,32-37.7,32c-6.3,0-12.5-1.6-18-4.5L56,91L19.9,73z" />
</svg>
