<svg id="icon" xmlns="http://www.w3.org/2000/svg" width="16px" height="16px" viewBox="0 0 32 32">
  <defs>
    <style>.cls-1{fill:none;}</style>
  </defs>
  <title>cloud--download</title>
  <path d="M23.5,22H23V20h.5a4.5,4.5,0,0,0,.36-9L23,11l-.1-.82a7,7,0,0,0-13.88,0L9,11,8.14,11a4.5,4.5,0,0,0,.36,9H9v2H8.5A6.5,6.5,0,0,1,7.2,9.14a9,9,0,0,1,17.6,0A6.5,6.5,0,0,1,23.5,22Z" fill="#424242" />
  <polygon points="17 26.17 17 14 15 14 15 26.17 12.41 23.59 11 25 16 30 21 25 19.59 23.59 17 26.17" fill="#424242" />
  <rect id="_Transparent_Rectangle_" data-name="&lt;Transparent Rectangle&gt;" class="cls-1" width="32" height="32" />
</svg>
