<?xml version="1.0" encoding="utf-8" ?>
<svg version="1.1" id="Layer_1" xmlns="http://www.w3.org/2000/svg" xmlns:xlink="http://www.w3.org/1999/xlink" x="0px" y="0px" width="16" height="16" viewBox="0 0 32 32" style="enable-background:new 0 0 16 16;" xml:space="preserve">
  <style type="text/css">
    .st0{display:none;}
    .st1{display:inline;}
    .st2{fill:#424242;}
  </style>
  <g id="icon" class="st0">
    <title>flash--filled--check</title>
    <path class="st1" d="M14.6,29.9c-0.4-0.2-0.7-0.6-0.6-1.1L15.8,17H11c-0.6,0-1-0.4-1-1c0-0.1,0-0.2,0-0.3l3-13
    C13.1,2.3,13.5,2,14,2h10c0.3,0,0.6,0.1,0.8,0.4C25,2.6,25,2.9,25,3.2L23.2,11H28c0.4,0,0.7,0.2,0.9,0.6c0.1,0.3,0.1,0.7-0.1,1
    l-13,17C15.6,29.8,15.3,30,15,30C14.9,30,14.7,30,14.6,29.9z M20.8,13l2-9h-7.9l-2.5,11h5.9l-1.6,10.3L26,13H20.8z" />
  </g>
  <g id="Layer_3">
    <path d="M28.9,11.5C28.7,11.2,28.4,11,28,11h-4.8L25,3.2c0.1-0.3,0-0.6-0.2-0.9C24.6,2.1,24.3,2,24,2H14c-0.5,0-0.9,0.3-1,0.8
    l-0.4,1.8c2.7,1.3,4.5,4,4.5,7.1c0,2.1-0.8,3.9-2.1,5.3h0.8L14,28.8c-0.1,0.5,0.2,0.9,0.6,1.1C14.7,30,14.9,30,15,30
    c0.3,0,0.6-0.2,0.8-0.4l13-17C29,12.2,29,11.9,28.9,11.5z" fill="#424242" />
  </g>
  <g id="Layer_4">
    <g>
      <path d="M9.2,19.5c-4.3,0-7.9-3.5-7.9-7.9s3.5-7.9,7.9-7.9s7.9,3.5,7.9,7.9S13.6,19.5,9.2,19.5z M9.2,5.8c-3.2,0-5.9,2.6-5.9,5.9
      s2.6,5.9,5.9,5.9s5.9-2.6,5.9-5.9S12.5,5.8,9.2,5.8z" fill="#424242" />
    </g>
    <g>
      <polygon class="st2" points="8.1,15.6 5.2,11.7 6.8,10.5 8.2,12.4 12,7.9 13.5,9.2 		" />
    </g>
  </g>
  <g id="Layer_2_1_" class="st0"></g>
  <g id="Layer_2_copy" class="st0">
    <g class="st1">
      <path d="M9.2,19.5c-4.3,0-7.9-3.5-7.9-7.9s3.5-7.9,7.9-7.9s7.9,3.5,7.9,7.9S13.6,19.5,9.2,19.5z" />
    </g>
  </g>
</svg>
