<?xml version="1.0" standalone="no"?>
<!DOCTYPE svg PUBLIC "-//W3C//DTD SVG 20010904//EN"
 "http://www.w3.org/TR/2001/REC-SVG-20010904/DTD/svg10.dtd">
<svg version="1.0" xmlns="http://www.w3.org/2000/svg"
 width="256.000000pt" height="256.000000pt" viewBox="0 0 256.000000 256.000000"
 preserveAspectRatio="xMidYMid meet">
<metadata>
Created by potrace 1.11, written by Peter Selinger 2001-2013
</metadata>
<g transform="translate(0.000000,256.000000) scale(0.100000,-0.100000)"
fill="#000000" stroke="none">
<path d="M1131 2529 c-35 -4 -65 -10 -67 -11 -2 -2 -1 -14 3 -26 3 -15 11 -21
22 -18 9 3 55 8 104 12 83 6 87 7 87 30 0 22 -4 24 -42 23 -24 -1 -72 -5 -107
-10z"/>
<path d="M1490 2498 c0 -21 11 -26 102 -51 80 -22 103 -25 110 -15 18 29 5 37
-122 69 -93 23 -90 23 -90 -3z"/>
<path d="M788 2435 c-65 -26 -138 -66 -138 -74 0 -3 4 -12 9 -20 8 -12 26 -6
105 30 67 30 96 49 96 61 0 27 -12 28 -72 3z"/>
<path d="M1889 2343 c-11 -13 -11 -17 -1 -21 7 -2 46 -28 88 -58 41 -30 79
-54 84 -54 10 0 22 29 15 40 -7 12 -155 110 -165 110 -4 0 -14 -7 -21 -17z"/>
<path d="M394 2166 c-72 -72 -76 -78 -60 -94 15 -15 21 -12 93 61 73 72 76 78
61 93 -16 16 -22 12 -94 -60z"/>
<path d="M1140 2208 c-96 -13 -249 -69 -342 -124 -110 -65 -248 -203 -316
-313 -61 -100 -107 -221 -127 -338 -84 -481 233 -955 714 -1067 58 -14 60 -13
65 8 2 11 37 187 76 389 55 287 68 372 59 383 -8 9 -32 14 -74 14 -152 0 -304
13 -309 27 -3 7 88 243 203 523 l208 510 -46 -1 c-25 -1 -75 -6 -111 -11z"/>
<path d="M1371 2166 c-41 -206 -121 -681 -117 -692 4 -11 49 -14 208 -16 201
-3 203 -3 206 -25 2 -13 -96 -255 -222 -553 -124 -291 -226 -533 -226 -536 0
-4 46 -4 103 -1 355 18 663 227 813 551 59 129 78 223 78 386 1 172 -19 261
-89 406 -128 266 -383 463 -667 517 l-77 14 -10 -51z"/>
<path d="M2220 2075 c-11 -13 -10 -20 8 -43 12 -15 38 -53 59 -84 38 -58 59
-71 69 -43 7 16 -102 185 -118 185 -3 0 -11 -7 -18 -15z"/>
<path d="M145 1808 c-41 -85 -43 -94 -28 -105 9 -7 19 -13 23 -13 6 0 81 168
83 190 1 8 -6 16 -16 18 -13 3 -27 -17 -62 -90z"/>
<path d="M2424 1704 c-8 -3 -4 -29 12 -82 12 -42 25 -90 29 -105 4 -20 11 -27
23 -25 23 5 21 55 -7 146 -20 67 -29 77 -57 66z"/>
<path d="M39 1478 c0 -13 -4 -62 -7 -110 -7 -85 -6 -88 14 -88 19 0 22 8 28
73 4 39 9 89 13 110 5 35 4 37 -21 37 -20 0 -26 -5 -27 -22z"/>
<path d="M2503 1283 c-8 -3 -13 -24 -14 -51 0 -26 -4 -72 -8 -102 -5 -30 -8
-56 -7 -56 0 -1 11 -4 22 -8 25 -8 29 5 40 137 7 90 4 96 -33 80z"/>
<path d="M66 1062 c-22 -5 -19 -40 13 -149 20 -67 23 -72 44 -64 12 5 20 15
18 23 -31 112 -52 184 -54 188 -1 3 -10 4 -21 2z"/>
<path d="M2410 859 c0 -6 -18 -50 -40 -97 -40 -85 -41 -101 -4 -102 15 0 97
178 90 196 -6 16 -46 19 -46 3z"/>
<path d="M210 660 c-13 -8 -12 -14 5 -45 35 -60 100 -145 111 -145 6 0 16 6
22 13 8 9 -1 28 -35 72 -24 33 -51 72 -59 88 -16 29 -21 32 -44 17z"/>
<path d="M2133 431 c-63 -68 -71 -80 -60 -95 12 -16 17 -14 59 24 26 22 61 59
78 81 26 32 30 42 20 54 -7 8 -15 15 -19 14 -3 0 -39 -36 -78 -78z"/>
<path d="M490 335 c-17 -21 -4 -35 88 -95 58 -38 79 -47 89 -39 7 6 13 15 13
20 0 5 -33 31 -74 59 -41 27 -77 54 -81 60 -9 14 -20 12 -35 -5z"/>
<path d="M1787 187 c-71 -34 -87 -46 -85 -62 4 -26 24 -22 113 20 90 43 97 48
89 68 -8 23 -16 21 -117 -26z"/>
<path d="M865 132 c-3 -3 -5 -13 -5 -23 0 -13 19 -22 78 -37 133 -35 130 -34
137 -11 4 11 5 21 3 22 -15 9 -209 53 -213 49z"/>
<path d="M1378 77 c-95 -9 -98 -10 -98 -35 l0 -25 78 7 c127 11 144 16 140 39
-4 26 -4 26 -120 14z"/>
</g>
</svg>
