<?xml version="1.0" encoding="utf-8" ?>
<svg version="1.1" id="Layer_1" xmlns="http://www.w3.org/2000/svg" xmlns:xlink="http://www.w3.org/1999/xlink" x="0px" y="0px" viewBox="0 0 64 64" enable-background="new 0 0 64 64" xml:space="preserve">
  <g>
    <path fill="none" d="M41.3,27.6L41.3,27.6C41.3,27.6,41.4,27.6,41.3,27.6C41.4,27.6,41.3,27.6,41.3,27.6z" />
    <path fill="#FFFFFF" d="M32,35.7c0-0.1,0-0.3-0.1-0.4c-0.1-0.2-0.3-0.3-0.5-0.3l-8.7-0.3c-0.5,0-0.7-0.6-0.5-1.1l10.2-25h0l0,0
    c-0.1,0-0.2,0-0.3,0C19.1,8.6,8.6,19.1,8.6,32c0,11.7,8.5,21.3,19.7,23.1L32,36C32,35.9,32,35.8,32,35.7z" />
    <path fill="#FFFFFF" d="M34.5,8.7l-3.2,17.9c-0.1,0.5,0.2,0.9,0.6,0.9h9.4h0c0,0,0.1,0,0.1,0c0.3,0.1,0.6,0.4,0.5,0.8
    c0,0.1,0,0.2,0,0.3L30.5,55.3c0.5,0,1,0.1,1.5,0.1c12.9,0,23.4-10.5,23.4-23.4C55.4,19.9,46.2,10,34.5,8.7z" />
    <rect x="32.3" y="8.6" fill="none" width="0" height="0" />
    <path fill="none" d="M41.4,27.6C41.4,27.6,41.3,27.6,41.4,27.6l-9.5,0h0c-0.4,0-0.7-0.5-0.6-0.9l3.2-17.9
    c-0.7-0.1-1.5-0.1-2.2-0.1l-10.2,25c-0.2,0.5,0.1,1.1,0.5,1.1l8.7,0.3c0.2,0,0.4,0.1,0.5,0.3c0.1,0.1,0.1,0.2,0.1,0.4
    c0,0.1,0,0.2,0,0.3l-3.7,19.1c0,0,0,0,0,0l0,0c0,0,0,0,0,0l0,0c0.4,0.1,0.7,0.1,1.1,0.1c0.4,0,0.8,0.1,1.2,0.1l11.3-26.6
    c0-0.1,0-0.2,0-0.3C41.9,28.1,41.7,27.7,41.4,27.6z" />
    <path fill="none" d="M32,36c0-0.1,0-0.2,0-0.3C32,35.8,32,35.9,32,36l-3.7,19.1c0,0,0,0,0,0L32,36z" />
    <path fill="none" d="M32.3,8.6L32.3,8.6l-10.2,25c-0.2,0.5,0.1,1.1,0.5,1.1l8.7,0.3c0.2,0,0.4,0.1,0.5,0.3
    c-0.1-0.2-0.3-0.3-0.5-0.3l-8.7-0.3c-0.5,0-0.7-0.6-0.5-1.1L32.3,8.6C32.3,8.6,32.3,8.6,32.3,8.6L32.3,8.6z" />
    <path fill="none" d="M41.4,27.6c0.3,0.1,0.6,0.4,0.5,0.8C41.9,28.1,41.7,27.7,41.4,27.6z" />
    <path fill="none" d="M28.3,55.1c0.4,0.1,0.7,0.1,1.1,0.1C29,55.2,28.7,55.2,28.3,55.1L28.3,55.1z" />
    <path fill="none" d="M34.5,8.7L34.5,8.7c-0.7-0.1-1.5-0.1-2.2-0.1l0,0C33,8.6,33.8,8.7,34.5,8.7z" />
    <rect x="32.3" y="8.6" fill="none" width="0" height="0" />
    <path fill="#FFFFFF" d="M5.8,16.9l-0.9-0.5c-0.9,1.6-1.7,3.2-2.3,4.9l1,0.4C4.2,20,4.9,18.4,5.8,16.9z" />
    <path fill="#FFFFFF" d="M1.2,37.6c0.3,1.8,0.8,3.6,1.4,5.3l1-0.4c-0.6-1.6-1.1-3.4-1.4-5.1L1.2,37.6z" />
    <path fill="#FFFFFF" d="M12.5,8.8L11.9,8c-1.4,1.2-2.7,2.5-3.9,3.9l0.8,0.7C9.9,11.2,11.2,10,12.5,8.8z" />
    <path fill="#FFFFFF" d="M1.7,32c0-1.8,0.2-3.5,0.5-5.3l-1-0.2c-0.3,1.8-0.5,3.6-0.5,5.4v0.1h1.1V32z" />
    <path fill="#FFFFFF" d="M21.6,3.6l-0.4-1c-1.7,0.6-3.4,1.4-4.9,2.3l0.5,0.9C18.4,4.9,20,4.2,21.6,3.6z" />
    <path fill="#FFFFFF" d="M52.1,8c-1.4-1.2-2.9-2.2-4.5-3.1l-0.5,0.9c1.5,0.9,3,1.9,4.3,3L52.1,8z" />
    <path fill="#FFFFFF" d="M42.7,2.5c-1.7-0.6-3.5-1.1-5.3-1.4l-0.2,1c1.7,0.3,3.4,0.8,5.1,1.4L42.7,2.5z" />
    <path fill="#FFFFFF" d="M32,1.7l0-1.1c-1.8,0-3.7,0.2-5.4,0.5l0.2,1C28.4,1.9,30.2,1.7,32,1.7z" />
    <path fill="#FFFFFF" d="M4.9,47.8c0.9,1.6,2,3.1,3.2,4.5l0.8-0.7c-1.1-1.3-2.2-2.8-3-4.3L4.9,47.8z" />
    <path fill="#FFFFFF" d="M51.5,55.1l0.7,0.8c1.4-1.2,2.7-2.5,3.8-3.9l-0.8-0.7C54.1,52.7,52.9,54,51.5,55.1z" />
    <path fill="#FFFFFF" d="M12,56.1c1.4,1.2,2.9,2.2,4.5,3.1l0.5-0.9c-1.5-0.9-3-1.9-4.3-3L12,56.1z" />
    <path fill="#FFFFFF" d="M58.3,47.1l0.9,0.5c0.9-1.6,1.7-3.2,2.3-5l-1-0.4C59.9,43.9,59.1,45.5,58.3,47.1z" />
    <path fill="#FFFFFF" d="M61.4,21.2l-1,0.4c0.6,1.6,1.1,3.4,1.4,5.1l1-0.2C62.5,24.7,62,22.9,61.4,21.2z" />
    <path fill="#FFFFFF" d="M62.3,32c0,1.7-0.1,3.5-0.4,5.2l1,0.2c0.3-1.8,0.5-3.6,0.5-5.4v-0.1L62.3,32z" />
    <path fill="#FFFFFF" d="M56,11.8l-0.8,0.7c1.1,1.3,2.2,2.8,3,4.3l0.9-0.5C58.2,14.7,57.1,13.2,56,11.8z" />
    <path fill="#FFFFFF" d="M21.4,61.5c1.7,0.6,3.5,1.1,5.3,1.4l0.2-1c-1.7-0.3-3.4-0.7-5.1-1.3L21.4,61.5z" />
    <path fill="#FFFFFF" d="M32.1,62.3l0,1.1c1.8,0,3.7-0.2,5.4-0.5l-0.2-1C35.6,62.1,33.9,62.3,32.1,62.3z" />
    <path fill="#FFFFFF" d="M42.4,60.4l0.4,1c1.7-0.6,3.4-1.4,4.9-2.3l-0.5-0.9C45.7,59.1,44.1,59.8,42.4,60.4z" />
  </g>
</svg>
