<svg id="icon" xmlns="http://www.w3.org/2000/svg" width="16px" height="16px" viewBox="0 0 16 16">
  <title>POST</title>
  <g stroke="none" stroke-width="1" fill="none" fill-rule="evenodd">
    <path d="M10.75,10.5 L8.5,10.5 L8.5,9.78571429 L10.75,9.78571429 L10.75,8.35714286 L9.25,8.35714286 C8.83578644,8.35714286 8.5,8.03734625 8.5,7.64285714 L8.5,6.21428571 C8.5,5.81979661 8.83578644,5.5 9.25,5.5 L11.5,5.5 L11.5,6.21428571 L9.25,6.21428571 L9.25,7.64285714 L10.75,7.64285714 C11.1642136,7.64285714 11.5,7.96265375 11.5,8.35714286 L11.5,9.78571429 C11.5,10.1802034 11.1642136,10.5 10.75,10.5 Z" fill="#C5C5C5"></path>
    <path d="M 3.5 5.5 L 1 5.5 L 1 10.5 L 2 10.5 L 2 9 L 3.5 9 C 4.0519 8.9992 4.4992 8.5519 4.5 8 L 4.5 6.5 C 4.4994 5.9479 4.0521 5.5006 3.5 5.5 Z m -1.5 2.5 v -1.5 h 1.5 v 1.5 z" fill="#C5C5C5"></path>
    <polygon fill="#C5C5C5" points="15 5.5 12 5.5 12 6.5 13 6.5 13 10.5 14 10.5 14 6.5 15 6.5"></polygon>
    <path d="M 7.25 10.5 L 5.75 10.5 C 5.3358 10.5 5 10.1802 5 9.7857 L 5 6.2143 C 5 5.8198 5.3358 5.5 5.75 5.5 L 7.25 5.5 C 7.6642 5.5 8 5.8198 8 6.2143 L 8 9.7857 C 8 10.1802 7.6642 10.5 7.25 10.5 Z m -1.5 -0.75 v -3.5 h 1.5 v 3.5 Z" fill="#C5C5C5"></path>
  </g>
</svg>