<svg id="icon" xmlns="http://www.w3.org/2000/svg" width="16px" height="16px" viewBox="0 0 30 30">
  <defs>
    <style>.cls-1{fill:#000000;}.cls-2{fill:none;}</style>
  </defs>
  <title>timer</title>
  <rect class="cls-1" x="13" y="2" width="6" height="2" style="fill: #C5C5C5;" transform="translate(-1,0)" />
  <path d="M28,9,26.58,7.59,24.33,9.84a10.94,10.94,0,1,0,1.18,1.65ZM16,26a9,9,0,1,1,9-9A9,9,0,0,1,16,26Z" fill="#C5C5C5" transform="translate(-1,0)" />
  <polygon points="21 16 17 16 17 12 15 12 15 16 11 16 11 18 15 18 15 22 17 22 17 18 21 18 21 16" fill="#C5C5C5" transform="translate(-1,0)" />
  <rect class="cls-2" width="30" height="30" />
</svg>
